<?xml version="1.0" standalone="no"?>
<!DOCTYPE svg PUBLIC "-//W3C//DTD SVG 20010904//EN"
 "http://www.w3.org/TR/2001/REC-SVG-20010904/DTD/svg10.dtd">
<svg version="1.0" xmlns="http://www.w3.org/2000/svg"
 width="2664.000000pt" height="2664.000000pt" viewBox="0 0 2664.000000 2664.000000"
 preserveAspectRatio="xMidYMid meet">
<metadata>
Created by potrace 1.14, written by Peter Selinger 2001-2017
</metadata>
<g transform="translate(0.000000,2664.000000) scale(0.100000,-0.100000)"
fill="#000000" stroke="none">
<path d="M7842 26614 c-31 -15 -76 -52 -113 -92 -61 -67 -189 -249 -189 -270
0 -6 -4 -12 -8 -14 -9 -3 -89 -165 -120 -243 -12 -27 -41 -115 -66 -195 -26
-80 -56 -164 -68 -188 -30 -59 -81 -117 -117 -132 -28 -11 -37 -9 -118 31 -78
40 -93 44 -157 44 -53 0 -82 -6 -116 -23 -84 -41 -188 -157 -263 -292 -34 -61
-88 -209 -101 -275 -12 -61 -15 -78 -20 -119 -3 -22 -7 -57 -10 -76 -11 -75
-19 -204 -31 -535 -8 -205 -30 -335 -57 -335 -6 0 -37 18 -69 39 -61 41 -145
71 -197 71 -186 0 -400 -263 -447 -550 -4 -25 -10 -54 -13 -65 -3 -11 -6 -193
-7 -405 -1 -212 -5 -407 -9 -434 -9 -56 -44 -177 -55 -189 -4 -4 -37 5 -72 21
-94 43 -126 52 -184 52 -112 0 -207 -80 -280 -235 -57 -120 -70 -199 -61 -384
4 -79 8 -147 10 -150 2 -3 6 -28 10 -56 3 -27 8 -60 10 -71 2 -12 7 -39 10
-60 4 -22 8 -46 11 -54 2 -8 6 -32 10 -54 3 -21 7 -41 9 -45 2 -3 7 -28 10
-56 4 -27 9 -59 11 -70 3 -11 7 -33 10 -50 3 -16 12 -65 20 -107 8 -42 16 -94
20 -115 3 -21 7 -48 9 -59 2 -12 7 -43 11 -70 3 -27 9 -74 13 -104 7 -48 8
-103 3 -155 -2 -32 -50 -49 -125 -46 -160 7 -191 6 -226 -11 -76 -36 -130
-135 -145 -265 -6 -50 -7 -271 -1 -303 3 -14 10 -59 15 -100 25 -177 49 -263
161 -580 104 -293 130 -382 130 -447 0 -33 -1 -33 -47 -34 -27 0 -57 -2 -68
-4 -11 -3 -39 -7 -61 -9 -116 -14 -213 -80 -235 -157 -13 -48 -15 -146 -6
-223 8 -63 60 -230 99 -321 39 -89 228 -469 256 -515 12 -19 25 -42 29 -50 3
-8 19 -34 35 -57 15 -23 28 -44 28 -48 0 -3 15 -29 33 -58 82 -129 124 -248
92 -261 -8 -3 -78 -6 -156 -7 -108 -1 -154 -5 -195 -19 -143 -50 -185 -177
-125 -380 72 -241 187 -449 335 -606 74 -78 90 -111 64 -131 -7 -6 -53 -25
-103 -44 -98 -36 -167 -93 -179 -146 -17 -74 -17 -133 -2 -186 43 -149 292
-386 718 -684 l167 -117 -58 -56 c-84 -80 -115 -145 -116 -240 0 -99 30 -161
127 -261 80 -82 88 -88 174 -146 67 -45 69 -46 236 -129 144 -72 194 -94 463
-204 261 -106 265 -108 265 -132 0 -11 -14 -52 -31 -91 -38 -86 -44 -172 -16
-225 39 -72 180 -193 292 -250 113 -57 333 -119 490 -138 28 -3 61 -8 75 -10
14 -2 138 -6 275 -9 410 -8 485 -16 517 -55 16 -20 16 -34 1 -105 -12 -61 -11
-81 7 -120 32 -67 83 -112 182 -158 143 -68 344 -76 653 -27 71 12 62 10 285
56 96 19 193 38 214 40 22 3 43 7 48 10 16 10 37 -45 46 -121 9 -78 7 -585 -2
-695 -3 -30 -8 -98 -11 -150 -4 -52 -8 -108 -9 -125 -2 -16 -7 -66 -10 -110
-4 -44 -9 -91 -11 -105 -2 -14 -7 -50 -10 -80 -39 -344 -100 -534 -242 -749
-72 -108 -59 -120 72 -62 83 37 308 180 483 307 l62 45 0 -28 c0 -15 -7 -50
-15 -77 -8 -27 -13 -51 -10 -54 14 -14 167 77 295 177 36 27 66 46 68 42 5
-16 -25 -90 -67 -163 -36 -62 -173 -263 -190 -278 -3 -3 -24 -27 -46 -55 -100
-126 -247 -285 -265 -285 -4 0 -14 -7 -21 -16 -11 -14 -9 -19 11 -35 20 -16
40 -19 105 -18 43 1 95 6 115 10 19 4 47 10 61 12 64 12 206 68 347 137 l153
75 8 -30 c22 -85 -13 -352 -70 -528 -52 -160 -111 -243 -230 -325 -46 -31
-179 -96 -239 -117 -3 -1 -12 -4 -20 -8 -68 -27 -263 -78 -375 -97 -245 -42
-314 -85 -372 -233 -15 -38 -35 -73 -45 -78 -10 -5 -100 -11 -199 -12 l-181
-2 7 -60 c14 -118 14 -398 0 -497 -35 -244 -108 -443 -230 -626 -123 -184
-328 -360 -525 -449 -41 -19 -84 -38 -95 -43 -85 -39 -275 -84 -410 -97 -704
-68 -1239 283 -1358 892 -27 136 -29 155 -32 323 l-2 162 23 1 c13 1 27 2 32
3 4 1 41 6 82 10 41 5 82 10 91 11 9 2 40 6 70 10 30 4 73 11 97 16 23 5 59
12 80 15 20 3 40 8 43 10 3 2 20 6 37 9 17 3 84 20 149 39 340 98 637 263 842
467 178 177 336 452 410 714 74 262 99 493 79 715 -7 73 -15 120 -44 270 -11
57 -55 194 -89 282 -65 163 -161 329 -268 463 -40 49 -199 210 -248 250 -269
220 -625 377 -989 435 -41 6 -86 14 -100 16 -170 29 -662 21 -759 -12 -8 -2
-30 -7 -50 -10 -69 -10 -301 -75 -358 -100 -17 -8 -34 -14 -37 -14 -3 0 -35
-14 -71 -30 -36 -16 -67 -30 -70 -30 -13 0 -242 -131 -317 -182 -400 -268
-743 -673 -988 -1166 -52 -104 -72 -147 -126 -269 -21 -46 -111 -286 -122
-325 -6 -18 -26 -85 -45 -148 -57 -189 -122 -460 -141 -595 -4 -23 -8 -50 -10
-60 -2 -11 -7 -45 -11 -75 -4 -30 -9 -64 -11 -75 -2 -11 -6 -49 -9 -85 -3 -36
-7 -76 -10 -90 -26 -148 -27 -840 -1 -1032 3 -18 8 -60 11 -93 16 -152 47
-339 91 -555 5 -27 52 -226 58 -250 2 -8 14 -51 26 -95 12 -44 25 -91 30 -105
5 -14 23 -72 41 -130 135 -447 441 -1113 707 -1542 10 -14 37 -59 62 -100 193
-314 559 -814 795 -1083 15 -16 38 -43 52 -60 158 -183 279 -311 498 -530 199
-199 339 -333 435 -415 14 -12 43 -38 65 -58 22 -21 67 -60 100 -87 33 -28 71
-60 85 -71 94 -80 120 -101 236 -194 342 -273 745 -555 1109 -775 107 -65 346
-205 350 -205 2 0 32 -16 67 -36 168 -96 856 -434 883 -434 2 0 30 -12 62 -26
32 -14 67 -30 78 -34 11 -4 36 -15 57 -24 20 -9 89 -36 155 -61 65 -25 127
-50 138 -55 20 -9 71 -27 285 -102 229 -80 580 -185 845 -253 17 -5 35 -9 40
-11 25 -6 282 -66 300 -70 11 -2 29 -6 40 -8 22 -5 316 -64 355 -71 14 -3 45
-8 70 -11 25 -3 54 -8 65 -10 11 -3 36 -7 55 -10 19 -2 42 -6 50 -9 15 -4 300
-43 375 -51 22 -2 54 -6 70 -9 17 -2 62 -7 100 -11 39 -3 86 -7 105 -10 19 -2
73 -6 120 -10 47 -3 101 -7 120 -9 262 -26 1342 -26 1560 0 19 2 78 6 130 10
52 3 115 8 140 10 25 3 63 7 85 10 22 2 72 7 110 10 39 4 81 8 95 11 14 2 63
9 110 14 47 6 92 13 100 15 8 2 38 6 65 9 28 3 61 8 75 10 14 2 59 10 100 16
41 7 84 14 95 17 11 2 34 6 50 8 17 3 41 7 55 10 36 8 62 13 106 19 22 4 55
11 74 16 19 5 53 12 75 16 22 3 85 16 140 29 55 13 112 26 126 28 14 3 104 26
200 51 153 40 249 67 484 136 181 53 672 226 782 276 17 8 34 14 37 14 9 0
392 164 491 210 361 169 784 392 1051 555 18 11 65 40 106 64 92 56 460 298
553 365 141 101 411 301 431 320 6 6 22 18 34 26 12 8 28 20 34 25 6 6 33 28
61 50 27 22 55 45 61 50 6 6 33 28 60 50 526 433 1042 952 1452 1460 40 50 78
97 85 105 162 198 597 832 597 870 0 5 4 10 8 12 5 1 50 77 101 168 50 91 98
176 106 190 23 41 161 319 195 395 44 97 120 275 120 281 0 3 9 24 19 47 50
110 156 426 220 654 64 227 133 562 156 752 3 23 7 55 9 70 3 14 8 60 11 101
4 41 9 84 11 94 23 120 23 811 0 946 -3 14 -7 52 -10 85 -9 83 -15 131 -26
195 -5 30 -12 71 -15 90 -3 19 -10 60 -16 90 -6 30 -13 69 -15 85 -7 42 -81
336 -105 420 -106 363 -278 757 -455 1040 -151 241 -260 380 -439 561 -480
483 -1080 735 -1740 728 -146 -1 -202 -5 -380 -28 -112 -14 -323 -66 -443
-107 -130 -45 -355 -160 -457 -233 -229 -166 -431 -401 -556 -648 -81 -160
-171 -435 -194 -588 -14 -101 -16 -119 -19 -210 -6 -199 26 -412 93 -615 166
-507 489 -877 975 -1114 251 -123 404 -164 776 -206 30 -3 75 -9 100 -12 25
-3 53 -6 64 -5 18 1 18 -7 13 -156 -7 -193 -11 -223 -47 -369 -105 -424 -413
-717 -849 -809 -115 -24 -173 -29 -331 -29 -132 1 -174 4 -280 21 -41 6 -176
41 -205 53 -127 52 -186 79 -217 98 -21 13 -40 23 -43 23 -7 0 -100 65 -155
108 -106 84 -223 215 -302 338 -102 159 -188 403 -215 610 -16 121 -8 478 12
585 3 14 -18 16 -180 16 -100 1 -191 4 -202 7 -11 3 -31 32 -46 66 -55 119
-139 172 -322 205 -72 12 -95 17 -180 39 -352 92 -581 225 -655 384 -50 105
-101 293 -115 423 -16 148 -9 287 13 277 4 -2 81 -40 172 -86 168 -85 271
-122 395 -145 114 -21 215 -10 215 23 0 5 -44 52 -98 107 -198 199 -442 556
-472 690 -5 18 -6 33 -3 33 3 0 32 -21 66 -47 88 -69 98 -77 112 -90 8 -7 16
-13 19 -13 4 0 30 -15 59 -34 28 -19 65 -38 80 -42 27 -6 28 -5 21 22 -4 16
-10 36 -14 44 -3 8 -8 33 -9 54 l-3 39 49 -37 c107 -81 303 -217 392 -271 114
-68 183 -97 210 -87 19 7 17 12 -25 77 -109 168 -185 363 -209 535 -3 25 -8
56 -10 70 -2 14 -7 50 -10 80 -3 30 -8 66 -10 80 -2 14 -7 66 -11 115 -3 50
-8 106 -10 125 -26 318 -26 963 0 1087 3 12 9 30 15 40 14 28 28 26 345 -48
71 -16 141 -31 155 -33 14 -2 69 -11 121 -19 196 -33 350 -41 452 -24 128 22
269 98 322 175 33 46 37 93 18 180 -13 57 2 83 58 99 55 17 243 20 440 9 251
-15 297 -12 464 24 311 68 493 154 638 300 95 96 108 152 62 275 -46 123 -46
123 -19 141 21 13 201 86 370 149 226 84 510 221 623 301 134 95 232 207 262
297 33 104 -6 225 -106 323 -31 30 -54 57 -52 58 1 2 52 35 111 74 481 319
746 560 788 715 21 79 9 176 -28 234 -21 32 -96 79 -157 99 -74 24 -106 45
-106 69 0 12 33 55 81 105 126 132 225 290 303 484 72 178 87 308 45 393 -46
92 -132 125 -335 127 -73 0 -136 4 -139 8 -17 17 12 86 92 219 48 79 126 221
173 314 48 94 112 217 142 275 77 149 159 345 174 415 1 6 5 24 8 40 3 17 8
41 11 55 10 46 6 168 -6 210 -7 23 -26 54 -42 70 -30 29 -101 68 -141 76 -35
8 -139 23 -181 27 l-40 3 2 50 c2 53 53 210 167 516 66 177 109 313 120 378 7
45 14 77 20 98 20 69 28 387 13 470 -17 93 -79 190 -136 215 -15 6 -88 11
-169 12 -139 0 -144 1 -163 24 -13 16 -19 39 -19 75 0 41 24 210 45 321 2 11
11 58 20 105 9 47 19 96 22 110 2 14 13 65 24 113 10 48 22 105 25 125 3 20 7
45 10 54 3 10 7 30 10 45 5 31 11 58 18 89 2 12 7 43 11 70 3 27 10 76 14 109
5 33 8 123 7 200 -2 131 -5 145 -34 220 -38 96 -76 158 -126 207 -59 57 -100
73 -186 72 -64 -1 -87 -6 -155 -37 l-80 -36 -17 37 c-40 89 -48 165 -42 417
11 495 8 576 -26 715 -28 113 -56 182 -109 262 -153 232 -326 285 -516 159
-33 -22 -63 -41 -67 -41 -13 0 -37 102 -42 180 -3 41 -8 190 -11 330 -3 140
-7 273 -10 295 -13 129 -17 158 -25 207 -16 97 -22 122 -46 196 -44 138 -142
294 -241 382 -66 59 -124 83 -198 83 -50 0 -73 -6 -144 -41 -46 -23 -92 -42
-103 -42 -25 0 -93 63 -122 115 -24 44 -59 143 -91 260 -10 33 -20 67 -23 75
-3 8 -6 21 -8 27 -16 81 -189 398 -296 543 -110 151 -219 195 -320 131 -52
-33 -77 -65 -118 -153 -32 -69 -76 -224 -85 -303 -4 -27 -8 -61 -10 -75 -5
-29 -13 -144 -20 -285 -3 -55 -7 -127 -10 -160 -2 -33 -7 -96 -10 -140 -3 -44
-8 -96 -10 -115 -3 -32 -10 -101 -21 -220 -4 -50 -13 -122 -19 -160 -2 -14
-11 -83 -20 -155 -9 -71 -18 -136 -20 -143 -2 -7 -7 -40 -11 -75 -3 -34 -8
-65 -10 -68 -1 -3 -10 -48 -18 -100 -20 -117 -26 -150 -31 -169 -3 -8 -7 -35
-10 -59 -3 -24 -8 -47 -10 -51 -3 -4 -7 -25 -11 -46 -27 -181 -167 -704 -270
-1013 -207 -622 -556 -1378 -839 -1821 -214 -335 -424 -609 -551 -720 -16 -14
-83 -70 -149 -124 -205 -169 -241 -215 -325 -416 -79 -190 -195 -374 -310
-490 -61 -62 -107 -95 -249 -179 -95 -57 -190 -118 -211 -137 -40 -36 -72 -88
-84 -137 -8 -32 -8 -159 -1 -222 13 -116 26 -208 30 -215 2 -3 6 -29 10 -59 4
-30 9 -63 11 -75 2 -12 6 -33 9 -47 12 -67 59 -211 90 -276 122 -260 371 -434
800 -558 242 -70 319 -113 413 -232 38 -49 78 -133 89 -188 10 -50 9 -197 -1
-250 -38 -198 -196 -399 -389 -496 -116 -59 -215 -82 -352 -81 -129 0 -272 37
-387 99 -50 27 -47 21 -111 213 -97 286 -152 395 -270 527 -45 50 -55 69 -61
109 -3 27 -8 60 -10 74 -3 14 -10 68 -16 120 -40 330 -91 510 -191 676 -20 33
-86 126 -145 207 -188 252 -239 375 -281 677 -4 30 -7 474 -8 985 l0 930 -22
55 c-13 30 -41 77 -63 104 -39 47 -40 49 -23 68 10 11 51 36 91 56 92 46 149
94 160 135 11 38 -7 96 -43 143 -14 18 -25 39 -25 46 0 29 57 71 312 226 186
114 308 232 308 300 0 22 -3 23 -47 18 -27 -3 -61 -8 -78 -11 -127 -25 -193
-32 -276 -33 -110 0 -128 6 -112 40 9 21 90 123 137 173 44 47 125 153 140
182 31 61 0 79 -77 43 -49 -22 -191 -70 -227 -76 -14 -3 -32 -7 -40 -10 -29
-10 -186 -15 -225 -7 l-40 9 -1 218 c-1 292 -7 279 285 581 218 226 317 445
305 676 -10 200 -113 362 -316 499 -82 55 -165 94 -225 105 -16 3 -39 7 -53
10 -75 16 -209 6 -430 -32 -275 -46 -313 -51 -383 -44 -40 4 -141 160 -149
231 -3 24 -3 24 102 26 58 2 116 3 130 3 l25 1 0 215 0 215 -25 1 c-14 1 -73
1 -132 1 l-108 0 0 140 0 139 -225 -2 c-159 -1 -225 -5 -226 -13 -1 -6 -2 -67
-3 -136 l-1 -125 -80 -2 c-44 0 -100 -1 -125 -2 l-45 -1 1 -205 c1 -113 4
-209 8 -212 4 -4 55 -6 115 -5 l108 2 -53 -102 c-29 -57 -67 -118 -84 -137
l-31 -33 -77 6 c-42 4 -104 11 -137 16 -33 5 -87 12 -120 15 -33 4 -68 9 -78
11 -42 13 -295 12 -343 -1 -297 -78 -473 -259 -531 -545 -13 -66 -8 -203 9
-260 17 -54 75 -159 112 -202 47 -54 171 -193 176 -198 10 -8 54 -73 69 -100
27 -50 76 -208 97 -310 9 -44 7 -492 -3 -540 -14 -72 -23 -90 -48 -100 -26
-10 -86 -5 -170 15 -33 8 -73 17 -90 20 -158 30 -201 35 -275 35 -97 0 -195
-23 -261 -62 -53 -32 -135 -112 -156 -153 -9 -16 -19 -32 -23 -35 -10 -7 -67
-149 -78 -195 -25 -99 -28 -90 37 -88 140 3 332 -96 486 -252 86 -87 142 -174
195 -300 46 -112 91 -178 179 -265 71 -71 241 -193 356 -255 207 -112 270
-163 308 -247 101 -220 108 -456 22 -713 -81 -240 -222 -424 -430 -561 -116
-76 -108 -70 -171 -131 -30 -29 -54 -61 -54 -71 0 -31 41 -58 124 -80 83 -22
126 -44 126 -65 0 -6 -15 -28 -33 -49 -80 -90 -148 -183 -214 -295 -59 -97
-71 -121 -113 -218 -86 -197 -119 -430 -85 -590 l13 -60 -41 -35 c-233 -195
-473 -538 -597 -855 -35 -89 -66 -126 -155 -189 -136 -96 -262 -136 -440 -141
-96 -3 -135 0 -195 16 -332 88 -562 369 -563 689 -1 225 125 403 348 491 11 5
85 27 165 49 246 69 447 157 572 250 58 43 153 143 194 205 59 87 122 242 140
344 3 12 12 53 20 90 9 36 18 82 20 101 2 19 6 44 8 56 3 12 8 36 11 55 3 19
10 59 15 89 14 85 7 258 -13 303 -26 59 -92 114 -268 221 -129 78 -180 116
-240 176 -130 132 -228 297 -330 552 -64 160 -123 231 -344 413 -308 252 -686
826 -1015 1540 -41 87 -182 418 -199 465 -7 19 -17 44 -22 55 -66 149 -232
652 -309 940 -51 188 -140 590 -163 730 -3 17 -12 75 -21 130 -9 55 -18 111
-21 125 -2 14 -8 57 -14 95 -10 66 -32 242 -46 365 -4 30 -8 66 -10 80 -3 22
-7 63 -20 220 -5 54 -15 198 -20 270 -3 36 -7 128 -10 205 -3 77 -7 185 -10
240 -13 334 -75 562 -181 667 -62 63 -130 73 -212 32z"/>
</g>
</svg>
